<?xml version="1.0" standalone="no"?>
<!DOCTYPE svg PUBLIC "-//W3C//DTD SVG 20010904//EN"
 "http://www.w3.org/TR/2001/REC-SVG-20010904/DTD/svg10.dtd">
<svg version="1.0" xmlns="http://www.w3.org/2000/svg"
 width="632.000000pt" height="620.000000pt" viewBox="0 0 632.000000 620.000000"
 preserveAspectRatio="xMidYMid meet">

<g transform="translate(0.000000,620.000000) scale(0.100000,-0.100000)"
fill="#000000" stroke="none">
<path d="M1522 5789 c-263 -34 -499 -150 -700 -343 -198 -190 -314 -412 -369
-706 -17 -88 -18 -203 -18 -1625 0 -1438 1 -1535 18 -1620 55 -274 175 -496
376 -695 135 -133 299 -237 473 -298 192 -68 97 -65 1823 -66 858 -1 1607 2
1665 6 206 13 429 96 613 228 110 79 263 238 334 346 93 143 157 306 190 484
17 88 18 203 18 1620 0 1422 -1 1532 -18 1625 -94 526 -462 917 -971 1033 -64
14 -243 16 -1721 18 -907 1 -1678 -2 -1713 -7z m340 -802 c47 -72 164 -256
258 -407 214 -342 276 -432 342 -502 l53 -56 100 16 c135 20 957 24 1115 4 58
-7 112 -15 121 -18 38 -11 129 111 364 481 248 391 386 604 396 611 35 21 94
-386 225 -1551 46 -415 67 -632 68 -730 1 -134 0 -142 -27 -197 -35 -72 -87
-119 -334 -304 -253 -189 -343 -265 -432 -368 -95 -109 -163 -212 -267 -404
-47 -86 -106 -185 -130 -218 -59 -84 -161 -174 -244 -218 -214 -113 -508 -76
-685 86 -98 89 -138 150 -295 438 -144 267 -279 412 -600 644 -297 216 -349
262 -388 345 -46 100 -44 160 28 806 103 916 160 1365 195 1542 14 67 25 125
25 128 0 3 6 5 13 5 6 0 51 -60 99 -133z"/>
<path d="M4105 3302 c-281 -117 -441 -279 -525 -530 -34 -103 -60 -265 -60
-382 l0 -75 34 63 c68 125 156 220 363 390 127 105 187 179 232 285 38 93 75
288 54 287 -5 0 -48 -17 -98 -38z"/>
<path d="M2167 3288 c9 -84 43 -204 77 -273 44 -88 110 -162 234 -262 188
-151 287 -256 353 -376 l29 -52 0 45 c0 66 -26 265 -45 335 -54 207 -155 360
-311 471 -72 51 -253 140 -306 149 l-36 7 5 -44z"/>
</g>
</svg>
